<?xml version="1.0" encoding="UTF-8" standalone="no"?>
<!DOCTYPE svg PUBLIC "-//W3C//DTD SVG 1.1//EN"
 "http://www.w3.org/Graphics/SVG/1.1/DTD/svg11.dtd">
<!-- Generated by graphviz version 2.40.1 (20161225.0304)
 -->
<!-- Title: %0 Pages: 1 -->
<svg width="1859pt" height="1731pt"
 viewBox="0.00 0.00 1859.00 1731.20" xmlns="http://www.w3.org/2000/svg" xmlns:xlink="http://www.w3.org/1999/xlink">
<g id="graph0" class="graph" transform="scale(1 1) rotate(0) translate(4 1727.2)">
<title>%0</title>
<polygon fill="#ffffff" stroke="transparent" points="-4,4 -4,-1727.2 1855,-1727.2 1855,4 -4,4"/>
<!-- Москва -->
<g id="node1" class="node">
<title>Москва</title>
<ellipse fill="none" stroke="#000000" cx="1143" cy="-1705.2" rx="80.5152" ry="18"/>
<text text-anchor="middle" x="1143" y="-1701" font-family="Times,serif" font-size="14.00" fill="#000000">Москва</text>
</g>
<!-- Великий Новогород -->
<g id="node2" class="node">
<title>Великий Новогород</title>
<ellipse fill="none" stroke="#000000" cx="1143" cy="-1616.4" rx="211.8715" ry="18"/>
<text text-anchor="middle" x="1143" y="-1612.2" font-family="Times,serif" font-size="14.00" fill="#000000">Великий Новогород</text>
</g>
<!-- Москва&#45;&gt;Великий Новогород -->
<g id="edge1" class="edge">
<title>Москва&#45;&gt;Великий Новогород</title>
<path fill="none" stroke="#000000" d="M1143,-1686.8006C1143,-1674.6949 1143,-1658.6076 1143,-1644.8674"/>
<polygon fill="#000000" stroke="#000000" points="1146.5001,-1644.472 1143,-1634.472 1139.5001,-1644.4721 1146.5001,-1644.472"/>
<text text-anchor="middle" x="1150" y="-1656.6" font-family="Times,serif" font-size="14.00" fill="#000000">50</text>
</g>
<!-- Иваново -->
<g id="node3" class="node">
<title>Иваново</title>
<ellipse fill="none" stroke="#000000" cx="879" cy="-728.4" rx="107.712" ry="18"/>
<text text-anchor="middle" x="879" y="-724.2" font-family="Times,serif" font-size="14.00" fill="#000000">Иваново</text>
</g>
<!-- Москва&#45;&gt;Иваново -->
<g id="edge2" class="edge">
<title>Москва&#45;&gt;Иваново</title>
<path fill="none" stroke="#000000" d="M1204.6858,-1693.6148C1263.023,-1681.2854 1344.4681,-1660.0388 1364,-1634.4 1368.4882,-1628.5085 1385.8472,-1109.0047 1386,-1101.6 1386.3301,-1085.6034 1389.6356,-1081.1815 1386,-1065.6 1372.0803,-1005.9433 1373.8786,-978.9265 1325,-942 1289.6657,-915.3059 1268.873,-938.4132 1227,-924 1226.6852,-923.8916 1057.285,-835.3722 1057,-835.2 1032.9407,-820.6648 1028.8344,-814.1012 1005,-799.2 977.3346,-781.9037 945.2659,-763.9119 920.4048,-750.3936"/>
<polygon fill="#000000" stroke="#000000" points="922.0536,-747.3063 911.593,-745.6252 918.7221,-753.4627 922.0536,-747.3063"/>
<text text-anchor="middle" x="1393.5" y="-1212.6" font-family="Times,serif" font-size="14.00" fill="#000000">144</text>
</g>
<!-- Чебоксары -->
<g id="node4" class="node">
<title>Чебоксары</title>
<ellipse fill="none" stroke="#000000" cx="1574" cy="-1527.6" rx="104.8001" ry="18"/>
<text text-anchor="middle" x="1574" y="-1523.4" font-family="Times,serif" font-size="14.00" fill="#000000">Чебоксары</text>
</g>
<!-- Москва&#45;&gt;Чебоксары -->
<g id="edge3" class="edge">
<title>Москва&#45;&gt;Чебоксары</title>
<path fill="none" stroke="#000000" d="M1219.1386,-1699.3225C1347.1964,-1688.6556 1594.3092,-1664.4108 1620,-1634.4 1640.3173,-1610.6662 1619.2609,-1576.5991 1599.4277,-1553.3648"/>
<polygon fill="#000000" stroke="#000000" points="1601.801,-1550.7674 1592.5333,-1545.633 1596.5764,-1555.4261 1601.801,-1550.7674"/>
<text text-anchor="middle" x="1636" y="-1612.2" font-family="Times,serif" font-size="14.00" fill="#000000">80</text>
</g>
<!-- Самара -->
<g id="node5" class="node">
<title>Самара</title>
<ellipse fill="none" stroke="#000000" cx="367" cy="-1350" rx="84.029" ry="18"/>
<text text-anchor="middle" x="367" y="-1345.8" font-family="Times,serif" font-size="14.00" fill="#000000">Самара</text>
</g>
<!-- Москва&#45;&gt;Самара -->
<g id="edge4" class="edge">
<title>Москва&#45;&gt;Самара</title>
<path fill="none" stroke="#000000" d="M1063.2178,-1702.4486C890.0136,-1695.4107 495,-1673.1402 495,-1616.4 495,-1616.4 495,-1616.4 495,-1438.8 495,-1403.7217 462.1457,-1381.3942 429.7271,-1367.9013"/>
<polygon fill="#000000" stroke="#000000" points="430.7593,-1364.5468 420.1715,-1364.1601 428.2072,-1371.065 430.7593,-1364.5468"/>
<text text-anchor="middle" x="505.5" y="-1523.4" font-family="Times,serif" font-size="14.00" fill="#000000">106</text>
</g>
<!-- Саранск -->
<g id="node6" class="node">
<title>Саранск</title>
<ellipse fill="none" stroke="#000000" cx="1167" cy="-1438.8" rx="90.9302" ry="18"/>
<text text-anchor="middle" x="1167" y="-1434.6" font-family="Times,serif" font-size="14.00" fill="#000000">Саранск</text>
</g>
<!-- Москва&#45;&gt;Саранск -->
<g id="edge5" class="edge">
<title>Москва&#45;&gt;Саранск</title>
<path fill="none" stroke="#000000" d="M1068.7982,-1698.0873C992.1552,-1687.2718 888.1385,-1660.8709 922,-1598.4 961.4711,-1525.5801 1050.1555,-1480.7507 1109.2845,-1457.8135"/>
<polygon fill="#000000" stroke="#000000" points="1110.7575,-1460.9984 1118.8712,-1454.1853 1108.2797,-1454.4516 1110.7575,-1460.9984"/>
<text text-anchor="middle" x="953" y="-1567.8" font-family="Times,serif" font-size="14.00" fill="#000000">57</text>
</g>
<!-- Курск -->
<g id="node7" class="node">
<title>Курск</title>
<ellipse fill="none" stroke="#000000" cx="196" cy="-1261.2" rx="51.5736" ry="18"/>
<text text-anchor="middle" x="196" y="-1257" font-family="Times,serif" font-size="14.00" fill="#000000">Курск</text>
</g>
<!-- Москва&#45;&gt;Курск -->
<g id="edge6" class="edge">
<title>Москва&#45;&gt;Курск</title>
<path fill="none" stroke="#000000" d="M1062.6265,-1703.1631C802.4554,-1696.0454 0,-1669.7664 0,-1616.4 0,-1616.4 0,-1616.4 0,-1350 0,-1318.3937 85.6314,-1289.7734 143.6929,-1274.0004"/>
<polygon fill="#000000" stroke="#000000" points="144.7099,-1277.3516 153.4709,-1271.3938 142.9068,-1270.5878 144.7099,-1277.3516"/>
<text text-anchor="middle" x="7" y="-1479" font-family="Times,serif" font-size="14.00" fill="#000000">12</text>
</g>
<!-- Великий Новогород&#45;&gt;Чебоксары -->
<g id="edge7" class="edge">
<title>Великий Новогород&#45;&gt;Чебоксары</title>
<path fill="none" stroke="#000000" d="M1223.8149,-1599.7495C1301.9617,-1583.6487 1419.5494,-1559.4218 1496.5418,-1543.5589"/>
<polygon fill="#000000" stroke="#000000" points="1497.5715,-1546.9203 1506.6595,-1541.4743 1496.1589,-1540.0644 1497.5715,-1546.9203"/>
<text text-anchor="middle" x="1408.5" y="-1567.8" font-family="Times,serif" font-size="14.00" fill="#000000">109</text>
</g>
<!-- Иваново&#45;&gt;Саранск -->
<g id="edge11" class="edge">
<title>Иваново&#45;&gt;Саранск</title>
<path fill="none" stroke="#000000" d="M806.6923,-741.7534C774.078,-751.7722 738.556,-769.1614 719,-799.2 667.0938,-878.9295 670.5053,-941.0681 733,-1012.8 757.51,-1040.9328 779.0792,-1020.7057 815,-1030.8 860.7082,-1043.6447 878.3549,-1036.6677 916,-1065.6 1042.5726,-1162.8777 1127.0639,-1342.8021 1155.9612,-1411.3252"/>
<polygon fill="#000000" stroke="#000000" points="1152.7482,-1412.7142 1159.8197,-1420.6037 1159.2116,-1410.0263 1152.7482,-1412.7142"/>
<text text-anchor="middle" x="967.5" y="-1079.4" font-family="Times,serif" font-size="14.00" fill="#000000">178</text>
</g>
<!-- Тверь -->
<g id="node8" class="node">
<title>Тверь</title>
<ellipse fill="none" stroke="#000000" cx="719" cy="-373.2" rx="61.9718" ry="18"/>
<text text-anchor="middle" x="719" y="-369" font-family="Times,serif" font-size="14.00" fill="#000000">Тверь</text>
</g>
<!-- Иваново&#45;&gt;Тверь -->
<g id="edge8" class="edge">
<title>Иваново&#45;&gt;Тверь</title>
<path fill="none" stroke="#000000" d="M814.3377,-713.926C793.3866,-707.9434 773.7815,-700.5072 767,-692.4 756.8149,-680.2238 732.1874,-424.751 729,-409.2 728.457,-406.551 727.8257,-403.81 727.1493,-401.0774"/>
<polygon fill="#000000" stroke="#000000" points="730.5277,-400.1625 724.5785,-391.3957 723.7621,-401.959 730.5277,-400.1625"/>
<text text-anchor="middle" x="751.5" y="-546.6" font-family="Times,serif" font-size="14.00" fill="#000000">6</text>
</g>
<!-- Казань -->
<g id="node9" class="node">
<title>Казань</title>
<ellipse fill="none" stroke="#000000" cx="1070" cy="-639.6" rx="84.3567" ry="18"/>
<text text-anchor="middle" x="1070" y="-635.4" font-family="Times,serif" font-size="14.00" fill="#000000">Казань</text>
</g>
<!-- Иваново&#45;&gt;Казань -->
<g id="edge9" class="edge">
<title>Иваново&#45;&gt;Казань</title>
<path fill="none" stroke="#000000" d="M918.3407,-711.4841C931.9064,-705.5569 947.1656,-698.7848 961,-692.4 982.9204,-682.2833 1007.1039,-670.6204 1027.1111,-660.8333"/>
<polygon fill="#000000" stroke="#000000" points="1028.8398,-663.8838 1036.277,-656.338 1025.7574,-657.5989 1028.8398,-663.8838"/>
<text text-anchor="middle" x="1002" y="-679.8" font-family="Times,serif" font-size="14.00" fill="#000000">12</text>
</g>
<!-- Ульяновск -->
<g id="node10" class="node">
<title>Ульяновск</title>
<ellipse fill="none" stroke="#000000" cx="842" cy="-817.2" rx="114.1141" ry="18"/>
<text text-anchor="middle" x="842" y="-813" font-family="Times,serif" font-size="14.00" fill="#000000">Ульяновск</text>
</g>
<!-- Иваново&#45;&gt;Ульяновск -->
<g id="edge10" class="edge">
<title>Иваново&#45;&gt;Ульяновск</title>
<path fill="none" stroke="#000000" d="M856.0199,-746.0631C850.781,-751.3432 845.9061,-757.5678 843,-764.4 839.8061,-771.9088 838.7121,-780.5783 838.644,-788.6939"/>
<polygon fill="#000000" stroke="#000000" points="835.1553,-789.0483 839.0549,-798.8993 842.1497,-788.7666 835.1553,-789.0483"/>
<text text-anchor="middle" x="850" y="-768.6" font-family="Times,serif" font-size="14.00" fill="#000000">25</text>
</g>
<!-- Орёл -->
<g id="node11" class="node">
<title>Орёл</title>
<ellipse fill="none" stroke="#000000" cx="1153" cy="-550.8" rx="47.0014" ry="18"/>
<text text-anchor="middle" x="1153" y="-546.6" font-family="Times,serif" font-size="14.00" fill="#000000">Орёл</text>
</g>
<!-- Иваново&#45;&gt;Орёл -->
<g id="edge12" class="edge">
<title>Иваново&#45;&gt;Орёл</title>
<path fill="none" stroke="#000000" d="M887.6516,-710.3183C899.7984,-686.7379 924.0483,-645.6674 956,-621.6 998.8651,-589.3121 1057.8233,-570.7164 1100.0481,-560.7597"/>
<polygon fill="#000000" stroke="#000000" points="1100.8881,-564.1582 1109.8638,-558.5291 1099.3368,-557.3322 1100.8881,-564.1582"/>
<text text-anchor="middle" x="966.5" y="-635.4" font-family="Times,serif" font-size="14.00" fill="#000000">189</text>
</g>
<!-- Чебоксары&#45;&gt;Саранск -->
<g id="edge13" class="edge">
<title>Чебоксары&#45;&gt;Саранск</title>
<path fill="none" stroke="#000000" d="M1509.0596,-1513.4312C1435.1737,-1497.3106 1314.8793,-1471.0646 1238.4068,-1454.3797"/>
<polygon fill="#000000" stroke="#000000" points="1238.8958,-1450.9041 1228.3796,-1452.1919 1237.4036,-1457.7432 1238.8958,-1450.9041"/>
<text text-anchor="middle" x="1414" y="-1479" font-family="Times,serif" font-size="14.00" fill="#000000">21</text>
</g>
<!-- Самара&#45;&gt;Курск -->
<g id="edge14" class="edge">
<title>Самара&#45;&gt;Курск</title>
<path fill="none" stroke="#000000" d="M334.8362,-1333.2974C306.1658,-1318.4089 264.1732,-1296.6022 233.8848,-1280.8735"/>
<polygon fill="#000000" stroke="#000000" points="235.3762,-1277.7042 224.8884,-1276.2017 232.1501,-1283.9165 235.3762,-1277.7042"/>
<text text-anchor="middle" x="304" y="-1301.4" font-family="Times,serif" font-size="14.00" fill="#000000">71</text>
</g>
<!-- Брянск -->
<g id="node12" class="node">
<title>Брянск</title>
<ellipse fill="none" stroke="#000000" cx="890" cy="-195.6" rx="70.7016" ry="18"/>
<text text-anchor="middle" x="890" y="-191.4" font-family="Times,serif" font-size="14.00" fill="#000000">Брянск</text>
</g>
<!-- Самара&#45;&gt;Брянск -->
<g id="edge15" class="edge">
<title>Самара&#45;&gt;Брянск</title>
<path fill="none" stroke="#000000" d="M286.7751,-1344.346C218.1623,-1338.6347 125.2389,-1328.5657 91,-1314 56.4329,-1299.2947 25,-1298.765 25,-1261.2 25,-1261.2 25,-1261.2 25,-684 25,-491.6815 481.1397,-329.1152 630,-266.4 665.6252,-251.391 763.6113,-226.254 828.5943,-210.3209"/>
<polygon fill="#000000" stroke="#000000" points="829.4446,-213.7162 838.3281,-207.9425 827.7831,-206.9162 829.4446,-213.7162"/>
<text text-anchor="middle" x="35.5" y="-768.6" font-family="Times,serif" font-size="14.00" fill="#000000">173</text>
</g>
<!-- Саранск&#45;&gt;Самара -->
<g id="edge17" class="edge">
<title>Саранск&#45;&gt;Самара</title>
<path fill="none" stroke="#000000" d="M1087.3682,-1429.9609C935.8686,-1413.1444 607.4223,-1376.6869 451.9116,-1359.4252"/>
<polygon fill="#000000" stroke="#000000" points="452.2473,-1355.941 441.9222,-1358.3164 451.4749,-1362.8983 452.2473,-1355.941"/>
<text text-anchor="middle" x="846" y="-1390.2" font-family="Times,serif" font-size="14.00" fill="#000000">45</text>
</g>
<!-- Ярославль -->
<g id="node13" class="node">
<title>Ярославль</title>
<ellipse fill="none" stroke="#000000" cx="1328" cy="-106.8" rx="108.2918" ry="18"/>
<text text-anchor="middle" x="1328" y="-102.6" font-family="Times,serif" font-size="14.00" fill="#000000">Ярославль</text>
</g>
<!-- Саранск&#45;&gt;Ярославль -->
<g id="edge16" class="edge">
<title>Саранск&#45;&gt;Ярославль</title>
<path fill="none" stroke="#000000" d="M1176.9256,-1420.8205C1179.7915,-1415.1648 1182.7492,-1408.8218 1185,-1402.8 1216.2347,-1319.2346 1209.6238,-1293.9268 1235,-1208.4 1249.2483,-1160.3784 1257.9902,-1149.9718 1271,-1101.6 1335.3688,-862.2701 1358,-798.6349 1358,-550.8 1358,-550.8 1358,-550.8 1358,-373.2 1358,-285.7949 1341.8557,-183.2664 1333.2535,-134.8393"/>
<polygon fill="#000000" stroke="#000000" points="1336.6637,-134.0282 1331.4414,-124.8099 1329.7752,-135.2729 1336.6637,-134.0282"/>
<text text-anchor="middle" x="1359.5" y="-768.6" font-family="Times,serif" font-size="14.00" fill="#000000">155</text>
</g>
<!-- Курск&#45;&gt;Саранск -->
<g id="edge19" class="edge">
<title>Курск&#45;&gt;Саранск</title>
<path fill="none" stroke="#000000" d="M241.7233,-1269.563C395.6869,-1297.7236 896.3995,-1389.306 1089.794,-1424.6787"/>
<polygon fill="#000000" stroke="#000000" points="1089.4096,-1428.1664 1099.8761,-1426.5228 1090.6691,-1421.2806 1089.4096,-1428.1664"/>
<text text-anchor="middle" x="786" y="-1345.8" font-family="Times,serif" font-size="14.00" fill="#000000">23</text>
</g>
<!-- Курск&#45;&gt;Тверь -->
<g id="edge18" class="edge">
<title>Курск&#45;&gt;Тверь</title>
<path fill="none" stroke="#000000" d="M189.7787,-1243.0747C184.2375,-1225.2972 177,-1197.3097 177,-1172.4 177,-1172.4 177,-1172.4 177,-1039.2 177,-990.6366 277.12,-660.6429 306,-621.6 360.4892,-547.936 386.1098,-532.4834 471,-498 528.7137,-474.556 554.7008,-508.6792 610,-480 647.9204,-460.3338 643.9465,-438.5325 675,-409.2 679.4127,-405.0319 684.2445,-400.7888 689.0395,-396.7472"/>
<polygon fill="#000000" stroke="#000000" points="691.5075,-399.2485 696.9938,-390.1848 687.0528,-393.8489 691.5075,-399.2485"/>
<text text-anchor="middle" x="250.5" y="-813" font-family="Times,serif" font-size="14.00" fill="#000000">176</text>
</g>
<!-- Саратов -->
<g id="node14" class="node">
<title>Саратов</title>
<ellipse fill="none" stroke="#000000" cx="484" cy="-1172.4" rx="84.029" ry="18"/>
<text text-anchor="middle" x="484" y="-1168.2" font-family="Times,serif" font-size="14.00" fill="#000000">Саратов</text>
</g>
<!-- Курск&#45;&gt;Саратов -->
<g id="edge20" class="edge">
<title>Курск&#45;&gt;Саратов</title>
<path fill="none" stroke="#000000" d="M234.841,-1249.224C284.1166,-1234.0307 369.5145,-1207.6997 426.3893,-1190.1633"/>
<polygon fill="#000000" stroke="#000000" points="427.4364,-1193.5031 435.9612,-1187.212 425.3739,-1186.8139 427.4364,-1193.5031"/>
<text text-anchor="middle" x="376.5" y="-1212.6" font-family="Times,serif" font-size="14.00" fill="#000000">197</text>
</g>
<!-- Тверь&#45;&gt;Иваново -->
<g id="edge28" class="edge">
<title>Тверь&#45;&gt;Иваново</title>
<path fill="none" stroke="#000000" d="M740.3369,-390.1507C758.2713,-406.4502 781,-432.8561 781,-462 781,-639.6 781,-639.6 781,-639.6 781,-669.3803 806.1578,-691.7792 830.9802,-706.6316"/>
<polygon fill="#000000" stroke="#000000" points="829.2777,-709.6897 839.7043,-711.5701 832.726,-703.598 829.2777,-709.6897"/>
<text text-anchor="middle" x="791.5" y="-546.6" font-family="Times,serif" font-size="14.00" fill="#000000">176</text>
</g>
<!-- Тверь&#45;&gt;Ярославль -->
<g id="edge27" class="edge">
<title>Тверь&#45;&gt;Ярославль</title>
<path fill="none" stroke="#000000" d="M753.4874,-358.1139C856.3818,-313.1039 1161.3948,-179.6795 1280.0331,-127.7826"/>
<polygon fill="#000000" stroke="#000000" points="1281.4949,-130.9634 1289.2539,-123.749 1278.6894,-124.5502 1281.4949,-130.9634"/>
<text text-anchor="middle" x="1048.5" y="-235.8" font-family="Times,serif" font-size="14.00" fill="#000000">179</text>
</g>
<!-- Пенза -->
<g id="node18" class="node">
<title>Пенза</title>
<ellipse fill="none" stroke="#000000" cx="719" cy="-284.4" rx="79.6998" ry="18"/>
<text text-anchor="middle" x="719" y="-280.2" font-family="Times,serif" font-size="14.00" fill="#000000">Пенза</text>
</g>
<!-- Тверь&#45;&gt;Пенза -->
<g id="edge29" class="edge">
<title>Тверь&#45;&gt;Пенза</title>
<path fill="none" stroke="#000000" d="M719,-354.8006C719,-342.6949 719,-326.6076 719,-312.8674"/>
<polygon fill="#000000" stroke="#000000" points="722.5001,-312.472 719,-302.472 715.5001,-312.4721 722.5001,-312.472"/>
<text text-anchor="middle" x="729.5" y="-324.6" font-family="Times,serif" font-size="14.00" fill="#000000">163</text>
</g>
<!-- Казань&#45;&gt;Чебоксары -->
<g id="edge76" class="edge">
<title>Казань&#45;&gt;Чебоксары</title>
<path fill="none" stroke="#000000" d="M1129.5158,-652.3851C1193.0381,-668.7255 1293.2593,-702.5969 1358,-764.4 1434.028,-836.9783 1430.7266,-876.4515 1462,-976.8 1494.092,-1079.7751 1498,-1108.94 1498,-1216.8 1498,-1438.8 1498,-1438.8 1498,-1438.8 1498,-1464.5772 1505.4741,-1471.8173 1522,-1491.6 1525.7881,-1496.1346 1530.2813,-1500.3536 1535.0158,-1504.1891"/>
<polygon fill="#000000" stroke="#000000" points="1533.0285,-1507.0736 1543.1296,-1510.2703 1537.2267,-1501.4722 1533.0285,-1507.0736"/>
<text text-anchor="middle" x="1500" y="-1079.4" font-family="Times,serif" font-size="14.00" fill="#000000">96</text>
</g>
<!-- Казань&#45;&gt;Орёл -->
<g id="edge77" class="edge">
<title>Казань&#45;&gt;Орёл</title>
<path fill="none" stroke="#000000" d="M1086.7963,-621.63C1099.1862,-608.3743 1116.195,-590.1769 1129.8699,-575.5465"/>
<polygon fill="#000000" stroke="#000000" points="1132.802,-577.5351 1137.0735,-567.8394 1127.688,-572.7551 1132.802,-577.5351"/>
<text text-anchor="middle" x="1126" y="-591" font-family="Times,serif" font-size="14.00" fill="#000000">33</text>
</g>
<!-- Вологда -->
<g id="node23" class="node">
<title>Вологда</title>
<ellipse fill="none" stroke="#000000" cx="842" cy="-994.8" rx="100.2267" ry="18"/>
<text text-anchor="middle" x="842" y="-990.6" font-family="Times,serif" font-size="14.00" fill="#000000">Вологда</text>
</g>
<!-- Казань&#45;&gt;Вологда -->
<g id="edge75" class="edge">
<title>Казань&#45;&gt;Вологда</title>
<path fill="none" stroke="#000000" d="M1061.5287,-657.6894C1044.7816,-692.8825 1005.5353,-772.5994 965,-835.2 932.8847,-884.7972 889.6034,-938.4245 863.871,-969.173"/>
<polygon fill="#000000" stroke="#000000" points="861.1729,-966.9435 857.4135,-976.8489 866.5294,-971.4498 861.1729,-966.9435"/>
<text text-anchor="middle" x="994" y="-813" font-family="Times,serif" font-size="14.00" fill="#000000">36</text>
</g>
<!-- Ульяновск&#45;&gt;Великий Новогород -->
<g id="edge52" class="edge">
<title>Ульяновск&#45;&gt;Великий Новогород</title>
<path fill="none" stroke="#000000" d="M921.6573,-830.271C964.043,-837.628 1011.543,-846.628 1032,-853.2 1145.8139,-889.7637 1185.7127,-921.4434 1234,-1030.8 1310.7071,-1204.5189 1328.5829,-1277.1621 1267,-1456.8 1248.1183,-1511.8782 1201.6154,-1562.6105 1171.2323,-1591.4894"/>
<polygon fill="#000000" stroke="#000000" points="1168.8041,-1588.9681 1163.8817,-1598.35 1173.5804,-1594.0855 1168.8041,-1588.9681"/>
<text text-anchor="middle" x="1308" y="-1212.6" font-family="Times,serif" font-size="14.00" fill="#000000">38</text>
</g>
<!-- Ульяновск&#45;&gt;Иваново -->
<g id="edge54" class="edge">
<title>Ульяновск&#45;&gt;Иваново</title>
<path fill="none" stroke="#000000" d="M849.4875,-799.23C854.6689,-786.7946 861.6623,-770.0104 867.5409,-755.9018"/>
<polygon fill="#000000" stroke="#000000" points="870.7812,-757.225 871.3966,-746.6481 864.3197,-754.5327 870.7812,-757.225"/>
<text text-anchor="middle" x="871" y="-768.6" font-family="Times,serif" font-size="14.00" fill="#000000">35</text>
</g>
<!-- Ульяновск&#45;&gt;Саранск -->
<g id="edge55" class="edge">
<title>Ульяновск&#45;&gt;Саранск</title>
<path fill="none" stroke="#000000" d="M921.4628,-830.157C987.8285,-845.2929 1079.6078,-877.0823 1131,-942 1195.5578,-1023.5482 1172,-1068.3913 1172,-1172.4 1172,-1350 1172,-1350 1172,-1350 1172,-1370.3316 1170.6773,-1393.2403 1169.3925,-1410.6964"/>
<polygon fill="#000000" stroke="#000000" points="1165.8935,-1410.5481 1168.6096,-1420.7888 1172.8726,-1411.0895 1165.8935,-1410.5481"/>
<text text-anchor="middle" x="1184.5" y="-1123.8" font-family="Times,serif" font-size="14.00" fill="#000000">149</text>
</g>
<!-- Ульяновск&#45;&gt;Вологда -->
<g id="edge53" class="edge">
<title>Ульяновск&#45;&gt;Вологда</title>
<path fill="none" stroke="#000000" d="M842,-835.2543C842,-866.2691 842,-929.8781 842,-966.722"/>
<polygon fill="#000000" stroke="#000000" points="838.5001,-966.7934 842,-976.7934 845.5001,-966.7934 838.5001,-966.7934"/>
<text text-anchor="middle" x="849" y="-901.8" font-family="Times,serif" font-size="14.00" fill="#000000">81</text>
</g>
<!-- Орёл&#45;&gt;Москва -->
<g id="edge21" class="edge">
<title>Орёл&#45;&gt;Москва</title>
<path fill="none" stroke="#000000" d="M1188.3345,-562.8085C1328.3985,-611.4658 1837,-798.6015 1837,-950.4 1837,-1616.4 1837,-1616.4 1837,-1616.4 1837,-1676.5588 1421.4045,-1696.7871 1233.429,-1702.8597"/>
<polygon fill="#000000" stroke="#000000" points="1233.1728,-1699.3659 1223.2886,-1703.1806 1233.3944,-1706.3624 1233.1728,-1699.3659"/>
<text text-anchor="middle" x="1844" y="-1123.8" font-family="Times,serif" font-size="14.00" fill="#000000">53</text>
</g>
<!-- Орёл&#45;&gt;Самара -->
<g id="edge22" class="edge">
<title>Орёл&#45;&gt;Самара</title>
<path fill="none" stroke="#000000" d="M1162.4957,-568.611C1170.9533,-586.1556 1182,-613.9756 1182,-639.6 1182,-817.2 1182,-817.2 1182,-817.2 1182,-973.7616 1150.4753,-1032.9056 1033,-1136.4 866.2254,-1283.3264 597.4522,-1329.3459 457.8052,-1343.6428"/>
<polygon fill="#000000" stroke="#000000" points="457.1734,-1340.1882 447.5674,-1344.6576 457.8639,-1347.154 457.1734,-1340.1882"/>
<text text-anchor="middle" x="1181.5" y="-946.2" font-family="Times,serif" font-size="14.00" fill="#000000">198</text>
</g>
<!-- Орёл&#45;&gt;Саратов -->
<g id="edge23" class="edge">
<title>Орёл&#45;&gt;Саратов</title>
<path fill="none" stroke="#000000" d="M1175.31,-566.7656C1194.8004,-582.7499 1220,-609.2792 1220,-639.6 1220,-861.6 1220,-861.6 1220,-861.6 1220,-938.9994 1074.3283,-1100.042 1006,-1136.4 969.3024,-1155.9271 718.2116,-1165.9347 578.0787,-1170.0529"/>
<polygon fill="#000000" stroke="#000000" points="577.6663,-1166.5632 567.7718,-1170.351 577.8688,-1173.5603 577.6663,-1166.5632"/>
<text text-anchor="middle" x="1227" y="-857.4" font-family="Times,serif" font-size="14.00" fill="#000000">36</text>
</g>
<!-- Тула -->
<g id="node15" class="node">
<title>Тула</title>
<ellipse fill="none" stroke="#000000" cx="1005" cy="-106.8" rx="56.8141" ry="18"/>
<text text-anchor="middle" x="1005" y="-102.6" font-family="Times,serif" font-size="14.00" fill="#000000">Тула</text>
</g>
<!-- Орёл&#45;&gt;Тула -->
<g id="edge24" class="edge">
<title>Орёл&#45;&gt;Тула</title>
<path fill="none" stroke="#000000" d="M1152.2295,-532.7574C1148.8797,-457.8341 1134.6329,-173.717 1110,-142.8 1103.2832,-134.3697 1082.3867,-126.4329 1060.9855,-120.1681"/>
<polygon fill="#000000" stroke="#000000" points="1061.7399,-116.7446 1051.1661,-117.4115 1059.8479,-123.4841 1061.7399,-116.7446"/>
<text text-anchor="middle" x="1151.5" y="-324.6" font-family="Times,serif" font-size="14.00" fill="#000000">116</text>
</g>
<!-- Резань -->
<g id="node16" class="node">
<title>Резань</title>
<ellipse fill="none" stroke="#000000" cx="961" cy="-462" rx="84.3567" ry="18"/>
<text text-anchor="middle" x="961" y="-457.8" font-family="Times,serif" font-size="14.00" fill="#000000">Резань</text>
</g>
<!-- Орёл&#45;&gt;Резань -->
<g id="edge25" class="edge">
<title>Орёл&#45;&gt;Резань</title>
<path fill="none" stroke="#000000" d="M1122.577,-536.7294C1091.1277,-522.1841 1041.6926,-499.3203 1005.7802,-482.7108"/>
<polygon fill="#000000" stroke="#000000" points="1007.0445,-479.4394 996.499,-478.4183 1004.1061,-485.7928 1007.0445,-479.4394"/>
<text text-anchor="middle" x="1082" y="-502.2" font-family="Times,serif" font-size="14.00" fill="#000000">44</text>
</g>
<!-- Смоленск -->
<g id="node17" class="node">
<title>Смоленск</title>
<ellipse fill="none" stroke="#000000" cx="481" cy="-462" rx="119.8719" ry="18"/>
<text text-anchor="middle" x="481" y="-457.8" font-family="Times,serif" font-size="14.00" fill="#000000">Смоленск</text>
</g>
<!-- Орёл&#45;&gt;Смоленск -->
<g id="edge26" class="edge">
<title>Орёл&#45;&gt;Смоленск</title>
<path fill="none" stroke="#000000" d="M1108.1266,-544.8703C1001.2484,-530.7471 729.5148,-494.8395 581.2447,-475.2466"/>
<polygon fill="#000000" stroke="#000000" points="581.5957,-471.7627 571.2233,-473.9224 580.6786,-478.7023 581.5957,-471.7627"/>
<text text-anchor="middle" x="888.5" y="-502.2" font-family="Times,serif" font-size="14.00" fill="#000000">170</text>
</g>
<!-- Брянск&#45;&gt;Ярославль -->
<g id="edge72" class="edge">
<title>Брянск&#45;&gt;Ярославль</title>
<path fill="none" stroke="#000000" d="M945.473,-184.3534C1022.3863,-168.76 1161.8201,-140.4913 1249.4198,-122.7313"/>
<polygon fill="#000000" stroke="#000000" points="1250.2053,-126.1434 1259.3104,-120.7261 1248.8144,-119.2829 1250.2053,-126.1434"/>
<text text-anchor="middle" x="1159.5" y="-147" font-family="Times,serif" font-size="14.00" fill="#000000">121</text>
</g>
<!-- Брянск&#45;&gt;Тула -->
<g id="edge73" class="edge">
<title>Брянск&#45;&gt;Тула</title>
<path fill="none" stroke="#000000" d="M912.1732,-178.4785C930.1058,-164.6314 955.523,-145.0049 975.2281,-129.7891"/>
<polygon fill="#000000" stroke="#000000" points="977.509,-132.4498 983.2849,-123.5678 973.2308,-126.9093 977.509,-132.4498"/>
<text text-anchor="middle" x="968.5" y="-147" font-family="Times,serif" font-size="14.00" fill="#000000">115</text>
</g>
<!-- Ярославль&#45;&gt;Саранск -->
<g id="edge31" class="edge">
<title>Ярославль&#45;&gt;Саранск</title>
<path fill="none" stroke="#000000" d="M1343.2679,-124.7232C1372.3894,-160.8088 1433,-245.8745 1433,-328.8 1433,-595.2 1433,-595.2 1433,-595.2 1433,-773.5752 1273.4834,-1199.141 1216,-1368 1210.6275,-1383.7819 1211.093,-1388.8268 1202,-1402.8 1199.6465,-1406.4166 1196.8946,-1409.9805 1193.9864,-1413.3769"/>
<polygon fill="#000000" stroke="#000000" points="1191.2213,-1411.2131 1187.0305,-1420.9439 1196.3748,-1415.9504 1191.2213,-1411.2131"/>
<text text-anchor="middle" x="1418.5" y="-768.6" font-family="Times,serif" font-size="14.00" fill="#000000">127</text>
</g>
<!-- Владимир -->
<g id="node19" class="node">
<title>Владимир</title>
<ellipse fill="none" stroke="#000000" cx="295" cy="-18" rx="111.7428" ry="18"/>
<text text-anchor="middle" x="295" y="-13.8" font-family="Times,serif" font-size="14.00" fill="#000000">Владимир</text>
</g>
<!-- Ярославль&#45;&gt;Владимир -->
<g id="edge30" class="edge">
<title>Ярославль&#45;&gt;Владимир</title>
<path fill="none" stroke="#000000" d="M1292.6625,-89.7279C1265.1214,-77.3299 1225.546,-61.4704 1189,-54 1115.4166,-38.9587 642.7659,-26.0972 416.0191,-20.7068"/>
<polygon fill="#000000" stroke="#000000" points="415.8209,-17.2012 405.7408,-20.4635 415.6552,-24.1992 415.8209,-17.2012"/>
<text text-anchor="middle" x="1254.5" y="-58.2" font-family="Times,serif" font-size="14.00" fill="#000000">166</text>
</g>
<!-- Воронеж -->
<g id="node20" class="node">
<title>Воронеж</title>
<ellipse fill="none" stroke="#000000" cx="1597" cy="-18" rx="97.4883" ry="18"/>
<text text-anchor="middle" x="1597" y="-13.8" font-family="Times,serif" font-size="14.00" fill="#000000">Воронеж</text>
</g>
<!-- Ярославль&#45;&gt;Воронеж -->
<g id="edge32" class="edge">
<title>Ярославль&#45;&gt;Воронеж</title>
<path fill="none" stroke="#000000" d="M1360.37,-89.4469C1382.5633,-78.1096 1412.9536,-63.6679 1441,-54 1465.5902,-45.5235 1493.0476,-38.4337 1517.9903,-32.8494"/>
<polygon fill="#000000" stroke="#000000" points="1518.7583,-36.2643 1527.7778,-30.7055 1517.2604,-29.4264 1518.7583,-36.2643"/>
<text text-anchor="middle" x="1448" y="-58.2" font-family="Times,serif" font-size="14.00" fill="#000000">15</text>
</g>
<!-- Саратов&#45;&gt;Саранск -->
<g id="edge42" class="edge">
<title>Саратов&#45;&gt;Саранск</title>
<path fill="none" stroke="#000000" d="M557.8439,-1181.1089C689.2508,-1197.9148 956.6056,-1238.4223 1028,-1297.2 1067.6604,-1329.8517 1037.8529,-1367.3151 1075,-1402.8 1082.5189,-1409.9824 1091.6361,-1415.782 1101.173,-1420.4508"/>
<polygon fill="#000000" stroke="#000000" points="1099.8498,-1423.6932 1110.4067,-1424.5889 1102.7125,-1417.3053 1099.8498,-1423.6932"/>
<text text-anchor="middle" x="1050" y="-1301.4" font-family="Times,serif" font-size="14.00" fill="#000000">32</text>
</g>
<!-- Саратов&#45;&gt;Тверь -->
<g id="edge37" class="edge">
<title>Саратов&#45;&gt;Тверь</title>
<path fill="none" stroke="#000000" d="M478.5432,-1154.2491C477.0902,-1148.5864 475.7242,-1142.2826 475,-1136.4 472.8483,-1118.9219 475.4875,-1079.3704 478,-1065.6 520.1266,-834.7167 575.5267,-788.8996 657,-568.8 680.1948,-506.1393 684.4218,-489.8831 704,-426 706.4738,-417.9281 709.0318,-409.1196 711.3195,-401.0509"/>
<polygon fill="#000000" stroke="#000000" points="714.7132,-401.9113 714.046,-391.3375 707.9737,-400.0195 714.7132,-401.9113"/>
<text text-anchor="middle" x="581" y="-768.6" font-family="Times,serif" font-size="14.00" fill="#000000">31</text>
</g>
<!-- Саратов&#45;&gt;Ярославль -->
<g id="edge39" class="edge">
<title>Саратов&#45;&gt;Ярославль</title>
<path fill="none" stroke="#000000" d="M568.099,-1170.9292C751.1064,-1167.3507 1170.9987,-1156.9381 1194,-1136.4 1238.7566,-1096.4363 1230.6693,-929.5525 1238,-870 1272.7799,-587.4596 1236.6784,-511.2346 1290,-231.6 1296.4877,-197.5763 1308.785,-159.6661 1317.6356,-134.6548"/>
<polygon fill="#000000" stroke="#000000" points="1320.9828,-135.6897 1321.0733,-125.0952 1314.3958,-133.3208 1320.9828,-135.6897"/>
<text text-anchor="middle" x="1266.5" y="-635.4" font-family="Times,serif" font-size="14.00" fill="#000000">132</text>
</g>
<!-- Саратов&#45;&gt;Тула -->
<g id="edge43" class="edge">
<title>Саратов&#45;&gt;Тула</title>
<path fill="none" stroke="#000000" d="M417.8165,-1161.092C375.6879,-1149.6657 329,-1127.1733 329,-1083.6 329,-1083.6 329,-1083.6 329,-728.4 329,-601.5873 336.5574,-569.8689 352,-444 358.3191,-392.4945 371,-380.6917 371,-328.8 371,-328.8 371,-328.8 371,-195.6 371,-138.843 774.6434,-116.1245 937.7874,-109.2601"/>
<polygon fill="#000000" stroke="#000000" points="938.3318,-112.7407 948.1788,-108.8307 938.0428,-105.7467 938.3318,-112.7407"/>
<text text-anchor="middle" x="342.5" y="-635.4" font-family="Times,serif" font-size="14.00" fill="#000000">162</text>
</g>
<!-- Саратов&#45;&gt;Владимир -->
<g id="edge40" class="edge">
<title>Саратов&#45;&gt;Владимир</title>
<path fill="none" stroke="#000000" d="M411.4204,-1163.0767C387.1907,-1157.7582 360.8261,-1149.4289 339,-1136.4 311.7686,-1120.1444 291,-1115.3143 291,-1083.6 291,-1083.6 291,-1083.6 291,-861.6 291,-703.0118 257,-664.9882 257,-506.4 257,-506.4 257,-506.4 257,-106.8 257,-84.7279 267.0457,-61.8778 276.8069,-44.8847"/>
<polygon fill="#000000" stroke="#000000" points="279.9475,-46.4553 282.1349,-36.0887 273.9603,-42.8286 279.9475,-46.4553"/>
<text text-anchor="middle" x="269" y="-591" font-family="Times,serif" font-size="14.00" fill="#000000">15</text>
</g>
<!-- Санкт&#45;Петербург -->
<g id="node21" class="node">
<title>Санкт&#45;Петербург</title>
<ellipse fill="none" stroke="#000000" cx="961" cy="-373.2" rx="161.5573" ry="18"/>
<text text-anchor="middle" x="961" y="-369" font-family="Times,serif" font-size="14.00" fill="#000000">Санкт&#45;Петербург</text>
</g>
<!-- Саратов&#45;&gt;Санкт&#45;Петербург -->
<g id="edge38" class="edge">
<title>Саратов&#45;&gt;Санкт&#45;Петербург</title>
<path fill="none" stroke="#000000" d="M454.5833,-1155.254C432.1225,-1139.719 405,-1114.5517 405,-1083.6 405,-1083.6 405,-1083.6 405,-950.4 405,-889.5137 471.5912,-678.7483 627,-532.8 703.1051,-461.3278 817.1235,-416.2948 890.2878,-392.9273"/>
<polygon fill="#000000" stroke="#000000" points="891.3976,-396.2473 899.8884,-389.9104 889.2991,-389.5693 891.3976,-396.2473"/>
<text text-anchor="middle" x="469" y="-768.6" font-family="Times,serif" font-size="14.00" fill="#000000">54</text>
</g>
<!-- Нижний Новгород -->
<g id="node22" class="node">
<title>Нижний Новгород</title>
<ellipse fill="none" stroke="#000000" cx="714" cy="-1083.6" rx="192.9177" ry="18"/>
<text text-anchor="middle" x="714" y="-1079.4" font-family="Times,serif" font-size="14.00" fill="#000000">Нижний Новгород</text>
</g>
<!-- Саратов&#45;&gt;Нижний Новгород -->
<g id="edge41" class="edge">
<title>Саратов&#45;&gt;Нижний Новгород</title>
<path fill="none" stroke="#000000" d="M524.8544,-1156.6267C562.2192,-1142.2006 617.7888,-1120.7459 659.0374,-1104.8203"/>
<polygon fill="#000000" stroke="#000000" points="660.3323,-1108.0723 668.4005,-1101.2054 657.811,-1101.5421 660.3323,-1108.0723"/>
<text text-anchor="middle" x="630.5" y="-1123.8" font-family="Times,serif" font-size="14.00" fill="#000000">137</text>
</g>
<!-- Тула&#45;&gt;Чебоксары -->
<g id="edge60" class="edge">
<title>Тула&#45;&gt;Чебоксары</title>
<path fill="none" stroke="#000000" d="M1053.3916,-116.3339C1076.7608,-122.0778 1104.713,-130.6739 1128,-142.8 1149.6566,-154.0772 1471,-393.1831 1471,-417.6 1471,-728.4 1471,-728.4 1471,-728.4 1471,-791.3584 1466.8256,-807.5745 1475,-870 1490.2986,-986.8307 1536,-1010.1719 1536,-1128 1536,-1438.8 1536,-1438.8 1536,-1438.8 1536,-1460.8721 1546.0457,-1483.7222 1555.8069,-1500.7153"/>
<polygon fill="#000000" stroke="#000000" points="1552.9603,-1502.7714 1561.1349,-1509.5113 1558.9475,-1499.1447 1552.9603,-1502.7714"/>
<text text-anchor="middle" x="1482.5" y="-813" font-family="Times,serif" font-size="14.00" fill="#000000">111</text>
</g>
<!-- Тула&#45;&gt;Владимир -->
<g id="edge59" class="edge">
<title>Тула&#45;&gt;Владимир</title>
<path fill="none" stroke="#000000" d="M951.925,-100.1619C833.438,-85.3427 545.8476,-49.3736 393.4936,-30.3186"/>
<polygon fill="#000000" stroke="#000000" points="393.5666,-26.8006 383.2095,-29.0324 392.6978,-33.7465 393.5666,-26.8006"/>
<text text-anchor="middle" x="717.5" y="-58.2" font-family="Times,serif" font-size="14.00" fill="#000000">8</text>
</g>
<!-- Резань&#45;&gt;Самара -->
<g id="edge62" class="edge">
<title>Резань&#45;&gt;Самара</title>
<path fill="none" stroke="#000000" d="M941.9093,-479.8398C840.2373,-574.9353 367,-1018.6645 367,-1039.2 367,-1261.2 367,-1261.2 367,-1261.2 367,-1281.4994 367,-1304.409 367,-1321.8736"/>
<polygon fill="#000000" stroke="#000000" points="363.5001,-1321.9721 367,-1331.9721 370.5001,-1321.9721 363.5001,-1321.9721"/>
<text text-anchor="middle" x="520.5" y="-901.8" font-family="Times,serif" font-size="14.00" fill="#000000">135</text>
</g>
<!-- Резань&#45;&gt;Курск -->
<g id="edge65" class="edge">
<title>Резань&#45;&gt;Курск</title>
<path fill="none" stroke="#000000" d="M900.981,-474.6808C884.6679,-480.0501 867.7329,-487.5649 854,-498 823.7306,-521.0005 830.4747,-539.7096 806,-568.8 787.7071,-590.5428 643.7264,-728.0876 622,-746.4 540.653,-814.9645 510.808,-819.9861 429,-888 357.7239,-947.2578 327.5902,-953.1315 277,-1030.8 234.1522,-1096.582 210.9129,-1187.7338 201.332,-1233.1456"/>
<polygon fill="#000000" stroke="#000000" points="197.8609,-1232.6505 199.2881,-1243.1488 204.7192,-1234.052 197.8609,-1232.6505"/>
<text text-anchor="middle" x="484.5" y="-857.4" font-family="Times,serif" font-size="14.00" fill="#000000">122</text>
</g>
<!-- Резань&#45;&gt;Саратов -->
<g id="edge63" class="edge">
<title>Резань&#45;&gt;Саратов</title>
<path fill="none" stroke="#000000" d="M949.2591,-480.0993C927.5911,-515.9895 886.301,-597.8634 918,-657.6 937.6226,-694.5786 974.5357,-674.4591 996,-710.4 1085.2417,-859.8307 1098.5021,-976.01 978,-1101.6 950.4866,-1130.2751 708.6761,-1154.2135 573.8654,-1165.4762"/>
<polygon fill="#000000" stroke="#000000" points="573.2295,-1162.0168 563.5526,-1166.3305 573.8075,-1168.9929 573.2295,-1162.0168"/>
<text text-anchor="middle" x="1064.5" y="-813" font-family="Times,serif" font-size="14.00" fill="#000000">165</text>
</g>
<!-- Резань&#45;&gt;Воронеж -->
<g id="edge64" class="edge">
<title>Резань&#45;&gt;Воронеж</title>
<path fill="none" stroke="#000000" d="M1016.4012,-448.3975C1052.3173,-437.4687 1098.4832,-419.2395 1132,-391.2 1182.533,-348.9251 1164.858,-312.4258 1212,-266.4 1298.7069,-181.7461 1343.5908,-191.1365 1445,-124.8 1487.1865,-97.2038 1534.5218,-63.4922 1564.9919,-41.4205"/>
<polygon fill="#000000" stroke="#000000" points="1567.0849,-44.2262 1573.1205,-35.5186 1562.9721,-38.5618 1567.0849,-44.2262"/>
<text text-anchor="middle" x="1259" y="-235.8" font-family="Times,serif" font-size="14.00" fill="#000000">15</text>
</g>
<!-- Резань&#45;&gt;Санкт&#45;Петербург -->
<g id="edge61" class="edge">
<title>Резань&#45;&gt;Санкт&#45;Петербург</title>
<path fill="none" stroke="#000000" d="M961,-443.6006C961,-431.4949 961,-415.4076 961,-401.6674"/>
<polygon fill="#000000" stroke="#000000" points="964.5001,-401.272 961,-391.272 957.5001,-401.2721 964.5001,-401.272"/>
<text text-anchor="middle" x="971.5" y="-413.4" font-family="Times,serif" font-size="14.00" fill="#000000">107</text>
</g>
<!-- Смоленск&#45;&gt;Самара -->
<g id="edge46" class="edge">
<title>Смоленск&#45;&gt;Самара</title>
<path fill="none" stroke="#000000" d="M383.9861,-472.6552C310.5952,-486.2152 213.8797,-516.9934 162,-586.8 131.3065,-628.0995 63,-987.7438 63,-1039.2 63,-1261.2 63,-1261.2 63,-1261.2 63,-1306.6446 189.7524,-1330.4257 279.5652,-1341.5721"/>
<polygon fill="#000000" stroke="#000000" points="279.1537,-1345.0478 289.5014,-1342.7729 279.9936,-1338.0983 279.1537,-1345.0478"/>
<text text-anchor="middle" x="93" y="-901.8" font-family="Times,serif" font-size="14.00" fill="#000000">60</text>
</g>
<!-- Смоленск&#45;&gt;Курск -->
<g id="edge47" class="edge">
<title>Смоленск&#45;&gt;Курск</title>
<path fill="none" stroke="#000000" d="M437.673,-478.9383C423.8755,-484.6499 408.6537,-491.2868 395,-498 323.4064,-533.2007 300.1841,-535.602 239,-586.8 195.8733,-622.8878 158,-627.7662 158,-684 158,-861.6 158,-861.6 158,-861.6 158,-940.9837 139,-959.8163 139,-1039.2 139,-1172.4 139,-1172.4 139,-1172.4 139,-1196.9595 154.6318,-1220.149 169.5233,-1236.6681"/>
<polygon fill="#000000" stroke="#000000" points="167.2752,-1239.3832 176.7024,-1244.2185 172.3481,-1234.5597 167.2752,-1239.3832"/>
<text text-anchor="middle" x="168.5" y="-857.4" font-family="Times,serif" font-size="14.00" fill="#000000">200</text>
</g>
<!-- Смоленск&#45;&gt;Тверь -->
<g id="edge44" class="edge">
<title>Смоленск&#45;&gt;Тверь</title>
<path fill="none" stroke="#000000" d="M525.766,-445.2974C567.2404,-429.8229 628.7452,-406.8749 671.1714,-391.0453"/>
<polygon fill="#000000" stroke="#000000" points="672.5743,-394.2576 680.7199,-387.4827 670.1273,-387.6992 672.5743,-394.2576"/>
<text text-anchor="middle" x="629" y="-413.4" font-family="Times,serif" font-size="14.00" fill="#000000">27</text>
</g>
<!-- Смоленск&#45;&gt;Санкт&#45;Петербург -->
<g id="edge45" class="edge">
<title>Смоленск&#45;&gt;Санкт&#45;Петербург</title>
<path fill="none" stroke="#000000" d="M556.7926,-447.9784C640.9498,-432.4093 776.8583,-407.2662 867.5422,-390.4897"/>
<polygon fill="#000000" stroke="#000000" points="868.3485,-393.9 877.5449,-388.6392 867.075,-387.0168 868.3485,-393.9"/>
<text text-anchor="middle" x="771" y="-413.4" font-family="Times,serif" font-size="14.00" fill="#000000">40</text>
</g>
<!-- Пенза&#45;&gt;Ульяновск -->
<g id="edge33" class="edge">
<title>Пенза&#45;&gt;Ульяновск</title>
<path fill="none" stroke="#000000" d="M684.9749,-300.8305C659.4884,-315.778 629,-340.4941 629,-373.2 629,-506.4 629,-506.4 629,-506.4 629,-632.9124 750.5703,-745.6591 810.0226,-793.2323"/>
<polygon fill="#000000" stroke="#000000" points="807.9606,-796.0636 817.9802,-799.5072 812.295,-790.5669 807.9606,-796.0636"/>
<text text-anchor="middle" x="646" y="-546.6" font-family="Times,serif" font-size="14.00" fill="#000000">15</text>
</g>
<!-- Пенза&#45;&gt;Брянск -->
<g id="edge35" class="edge">
<title>Пенза&#45;&gt;Брянск</title>
<path fill="none" stroke="#000000" d="M751.1638,-267.6974C779.1328,-253.1732 819.7801,-232.0651 849.8715,-216.4386"/>
<polygon fill="#000000" stroke="#000000" points="851.584,-219.4932 858.8457,-211.7784 848.3579,-213.2809 851.584,-219.4932"/>
<text text-anchor="middle" x="823.5" y="-235.8" font-family="Times,serif" font-size="14.00" fill="#000000">3</text>
</g>
<!-- Пенза&#45;&gt;Тула -->
<g id="edge34" class="edge">
<title>Пенза&#45;&gt;Тула</title>
<path fill="none" stroke="#000000" d="M727.5855,-266.2297C739.6592,-242.5513 763.8283,-201.3726 796,-177.6 839.9696,-145.1096 899.8642,-126.8417 944.2656,-117.0359"/>
<polygon fill="#000000" stroke="#000000" points="945.0067,-120.4567 954.0604,-114.9538 943.5512,-113.6096 945.0067,-120.4567"/>
<text text-anchor="middle" x="803" y="-191.4" font-family="Times,serif" font-size="14.00" fill="#000000">88</text>
</g>
<!-- Пенза&#45;&gt;Смоленск -->
<g id="edge36" class="edge">
<title>Пенза&#45;&gt;Смоленск</title>
<path fill="none" stroke="#000000" d="M664.8977,-297.7034C648.121,-303.2205 630.0906,-310.6611 615,-320.4 566.6508,-351.6026 523.4192,-403.8145 499.8327,-435.368"/>
<polygon fill="#000000" stroke="#000000" points="496.8204,-433.5563 493.7131,-443.6853 502.4587,-437.7048 496.8204,-433.5563"/>
<text text-anchor="middle" x="572.5" y="-369" font-family="Times,serif" font-size="14.00" fill="#000000">2</text>
</g>
<!-- Владимир&#45;&gt;Курск -->
<g id="edge68" class="edge">
<title>Владимир&#45;&gt;Курск</title>
<path fill="none" stroke="#000000" d="M224.125,-31.9782C158.5,-47.0126 71,-73.3334 71,-106.8 71,-817.2 71,-817.2 71,-817.2 71,-865.017 77.6202,-876.6105 84,-924 90.9051,-975.2918 101,-987.4455 101,-1039.2 101,-1172.4 101,-1172.4 101,-1172.4 101,-1203.8037 129.0476,-1227.2976 154.663,-1242.2059"/>
<polygon fill="#000000" stroke="#000000" points="153.1253,-1245.3548 163.5721,-1247.1199 156.5062,-1239.2254 153.1253,-1245.3548"/>
<text text-anchor="middle" x="78" y="-635.4" font-family="Times,serif" font-size="14.00" fill="#000000">73</text>
</g>
<!-- Владимир&#45;&gt;Орёл -->
<g id="edge69" class="edge">
<title>Владимир&#45;&gt;Орёл</title>
<path fill="none" stroke="#000000" d="M400.919,-23.7505C599.1317,-35.0838 1011.5346,-61.5776 1071,-88.8 1154.1096,-126.8464 1183.5052,-147.3691 1219,-231.6 1262.3123,-334.3822 1199.8087,-468.1085 1168.7532,-524.2047"/>
<polygon fill="#000000" stroke="#000000" points="1165.5768,-522.7116 1163.7057,-533.1399 1171.6716,-526.1546 1165.5768,-522.7116"/>
<text text-anchor="middle" x="1241" y="-280.2" font-family="Times,serif" font-size="14.00" fill="#000000">25</text>
</g>
<!-- Владимир&#45;&gt;Саратов -->
<g id="edge67" class="edge">
<title>Владимир&#45;&gt;Саратов</title>
<path fill="none" stroke="#000000" d="M246.6537,-34.2444C215.583,-48.0808 181,-71.4266 181,-106.8 181,-506.4 181,-506.4 181,-506.4 181,-775.0956 179.5225,-855.336 287,-1101.6 294.1356,-1117.9497 292.5323,-1125.9637 307,-1136.4 322.2331,-1147.3885 361.9684,-1155.976 399.9386,-1162.0034"/>
<polygon fill="#000000" stroke="#000000" points="399.6413,-1165.4987 410.0568,-1163.5578 400.7042,-1158.5799 399.6413,-1165.4987"/>
<text text-anchor="middle" x="192.5" y="-591" font-family="Times,serif" font-size="14.00" fill="#000000">130</text>
</g>
<!-- Владимир&#45;&gt;Вологда -->
<g id="edge66" class="edge">
<title>Владимир&#45;&gt;Вологда</title>
<path fill="none" stroke="#000000" d="M295,-36.0279C295,-53.9689 295,-82.2875 295,-106.8 295,-328.8 295,-328.8 295,-328.8 295,-490.938 594.6166,-817.6466 717,-924 740.1196,-944.0914 769.8244,-961.1998 794.4754,-973.5635"/>
<polygon fill="#000000" stroke="#000000" points="793.1322,-976.803 803.6515,-978.066 796.2158,-970.5188 793.1322,-976.803"/>
<text text-anchor="middle" x="376.5" y="-502.2" font-family="Times,serif" font-size="14.00" fill="#000000">166</text>
</g>
<!-- Воронеж&#45;&gt;Саранск -->
<g id="edge70" class="edge">
<title>Воронеж&#45;&gt;Саранск</title>
<path fill="none" stroke="#000000" d="M1657.333,-32.209C1716.8556,-48.031 1799,-75.5307 1799,-106.8 1799,-861.6 1799,-861.6 1799,-861.6 1799,-1066.3269 1526.4172,-916.6165 1386,-1065.6 1307.0772,-1149.3376 1372.601,-1215.5697 1313,-1314 1286.3639,-1357.9893 1238.8355,-1394.2695 1205.2531,-1416.1648"/>
<polygon fill="#000000" stroke="#000000" points="1203.1531,-1413.353 1196.6091,-1421.6852 1206.9208,-1419.2525 1203.1531,-1413.353"/>
<text text-anchor="middle" x="1809.5" y="-724.2" font-family="Times,serif" font-size="14.00" fill="#000000">189</text>
</g>
<!-- Волгоград -->
<g id="node24" class="node">
<title>Волгоград</title>
<ellipse fill="none" stroke="#000000" cx="1651" cy="-906" rx="119.8545" ry="18"/>
<text text-anchor="middle" x="1651" y="-901.8" font-family="Times,serif" font-size="14.00" fill="#000000">Волгоград</text>
</g>
<!-- Воронеж&#45;&gt;Волгоград -->
<g id="edge71" class="edge">
<title>Воронеж&#45;&gt;Волгоград</title>
<path fill="none" stroke="#000000" d="M1597,-36.0279C1597,-53.9689 1597,-82.2875 1597,-106.8 1597,-817.2 1597,-817.2 1597,-817.2 1597,-841.0793 1611.4318,-864.0013 1625.3739,-880.5738"/>
<polygon fill="#000000" stroke="#000000" points="1622.8605,-883.0149 1632.1134,-888.1758 1628.0985,-878.3711 1622.8605,-883.0149"/>
<text text-anchor="middle" x="1607.5" y="-457.8" font-family="Times,serif" font-size="14.00" fill="#000000">115</text>
</g>
<!-- Санкт&#45;Петербург&#45;&gt;Орёл -->
<g id="edge57" class="edge">
<title>Санкт&#45;Петербург&#45;&gt;Орёл</title>
<path fill="none" stroke="#000000" d="M986.8037,-391.0067C1006.0119,-404.6922 1032.5123,-424.4983 1054,-444 1082.6792,-470.0285 1112.4846,-503.1485 1131.7993,-525.553"/>
<polygon fill="#000000" stroke="#000000" points="1129.2583,-527.9668 1138.419,-533.2895 1134.577,-523.4158 1129.2583,-527.9668"/>
<text text-anchor="middle" x="1098" y="-457.8" font-family="Times,serif" font-size="14.00" fill="#000000">30</text>
</g>
<!-- Санкт&#45;Петербург&#45;&gt;Ярославль -->
<g id="edge56" class="edge">
<title>Санкт&#45;Петербург&#45;&gt;Ярославль</title>
<path fill="none" stroke="#000000" d="M998.755,-355.5979C1044.2382,-333.574 1122.0105,-293.2592 1182,-248.4 1229.7639,-212.6829 1278.0566,-162.4557 1305.3877,-132.414"/>
<polygon fill="#000000" stroke="#000000" points="1308.0957,-134.6374 1312.1972,-124.8687 1302.899,-129.9475 1308.0957,-134.6374"/>
<text text-anchor="middle" x="1210" y="-235.8" font-family="Times,serif" font-size="14.00" fill="#000000">90</text>
</g>
<!-- Санкт&#45;Петербург&#45;&gt;Тула -->
<g id="edge58" class="edge">
<title>Санкт&#45;Петербург&#45;&gt;Тула</title>
<path fill="none" stroke="#000000" d="M964.0243,-354.8892C971.5782,-309.1536 991.3125,-189.6719 1000.3538,-134.9306"/>
<polygon fill="#000000" stroke="#000000" points="1003.8363,-135.3233 1002.0127,-124.8866 996.9298,-134.1826 1003.8363,-135.3233"/>
<text text-anchor="middle" x="992" y="-235.8" font-family="Times,serif" font-size="14.00" fill="#000000">78</text>
</g>
<!-- Нижний Новгород&#45;&gt;Вологда -->
<g id="edge74" class="edge">
<title>Нижний Новгород&#45;&gt;Вологда</title>
<path fill="none" stroke="#000000" d="M739.9027,-1065.63C759.5494,-1052.0001 786.7269,-1033.1457 808.1026,-1018.3163"/>
<polygon fill="#000000" stroke="#000000" points="810.3513,-1021.0161 816.5726,-1012.4402 806.3612,-1015.2646 810.3513,-1021.0161"/>
<text text-anchor="middle" x="800.5" y="-1035" font-family="Times,serif" font-size="14.00" fill="#000000">107</text>
</g>
<!-- Вологда&#45;&gt;Великий Новогород -->
<g id="edge48" class="edge">
<title>Вологда&#45;&gt;Великий Новогород</title>
<path fill="none" stroke="#000000" d="M892.724,-1010.4595C919.5961,-1021.4766 950.5665,-1039.075 968,-1065.6 1008.5508,-1127.2977 1020.307,-1261.3165 988,-1314 979.2664,-1328.242 965.0584,-1318.6606 955,-1332 937.8878,-1354.6942 941,-1365.9772 941,-1394.4 941,-1527.6 941,-1527.6 941,-1527.6 941,-1555.4844 1006.3226,-1580.3711 1062.6746,-1596.6523"/>
<polygon fill="#000000" stroke="#000000" points="1061.775,-1600.0351 1072.3502,-1599.3905 1063.6812,-1593.2996 1061.775,-1600.0351"/>
<text text-anchor="middle" x="1003" y="-1301.4" font-family="Times,serif" font-size="14.00" fill="#000000">36</text>
</g>
<!-- Вологда&#45;&gt;Саратов -->
<g id="edge49" class="edge">
<title>Вологда&#45;&gt;Саратов</title>
<path fill="none" stroke="#000000" d="M749.6879,-1001.8803C659.6597,-1010.8028 531.5283,-1029.5433 498,-1065.6 478.6748,-1086.3825 477.3419,-1120.0564 479.4606,-1144.0342"/>
<polygon fill="#000000" stroke="#000000" points="476.0189,-1144.7463 480.6248,-1154.2876 482.9742,-1143.9566 476.0189,-1144.7463"/>
<text text-anchor="middle" x="505" y="-1079.4" font-family="Times,serif" font-size="14.00" fill="#000000">34</text>
</g>
<!-- Вологда&#45;&gt;Смоленск -->
<g id="edge51" class="edge">
<title>Вологда&#45;&gt;Смоленск</title>
<path fill="none" stroke="#000000" d="M818.7429,-977.1046C784.0359,-949.7573 718.2564,-894.1881 676,-835.2 579.6192,-700.6566 613.9797,-632.8298 518,-498 515.3557,-494.2854 512.3012,-490.6254 509.1039,-487.1451"/>
<polygon fill="#000000" stroke="#000000" points="511.4746,-484.5634 501.9802,-479.8615 506.4702,-489.4579 511.4746,-484.5634"/>
<text text-anchor="middle" x="635.5" y="-724.2" font-family="Times,serif" font-size="14.00" fill="#000000">156</text>
</g>
<!-- Вологда&#45;&gt;Волгоград -->
<g id="edge50" class="edge">
<title>Вологда&#45;&gt;Волгоград</title>
<path fill="none" stroke="#000000" d="M927.8113,-985.3809C1076.5811,-969.0512 1381.9775,-935.5293 1544.2159,-917.7212"/>
<polygon fill="#000000" stroke="#000000" points="1544.657,-921.1939 1554.2153,-916.6236 1543.8931,-914.2357 1544.657,-921.1939"/>
<text text-anchor="middle" x="1329.5" y="-946.2" font-family="Times,serif" font-size="14.00" fill="#000000">186</text>
</g>
<!-- Волгоград&#45;&gt;Ульяновск -->
<g id="edge78" class="edge">
<title>Волгоград&#45;&gt;Ульяновск</title>
<path fill="none" stroke="#000000" d="M1564.9496,-893.4675C1481.5235,-881.6799 1351.3124,-864.2384 1238,-853.2 1119.183,-841.6253 1088.742,-847.5202 970,-835.2 958.4907,-834.0058 946.425,-832.5625 934.4939,-831.0188"/>
<polygon fill="#000000" stroke="#000000" points="934.8907,-827.5409 924.5186,-829.7017 933.9744,-834.4807 934.8907,-827.5409"/>
<text text-anchor="middle" x="1393" y="-857.4" font-family="Times,serif" font-size="14.00" fill="#000000">39</text>
</g>
<!-- Волгоград&#45;&gt;Тула -->
<g id="edge80" class="edge">
<title>Волгоград&#45;&gt;Тула</title>
<path fill="none" stroke="#000000" d="M1605.314,-889.1383C1596.8103,-884.1427 1588.7921,-877.8447 1583,-870 1444.6552,-682.6307 1608.7934,-552.4859 1485,-355.2 1442.6487,-287.7059 1392.2653,-309.3996 1341,-248.4 1307.2142,-208.1989 1330.8583,-173.1441 1288,-142.8 1270.6158,-130.4918 1148.8053,-118.4693 1070.7628,-111.9064"/>
<polygon fill="#000000" stroke="#000000" points="1070.7846,-108.3962 1060.529,-111.0559 1070.2047,-115.3722 1070.7846,-108.3962"/>
<text text-anchor="middle" x="1538.5" y="-502.2" font-family="Times,serif" font-size="14.00" fill="#000000">1</text>
</g>
<!-- Волгоград&#45;&gt;Воронеж -->
<g id="edge79" class="edge">
<title>Волгоград&#45;&gt;Воронеж</title>
<path fill="none" stroke="#000000" d="M1658.2036,-887.9561C1664.6198,-870.2389 1673,-842.2947 1673,-817.2 1673,-817.2 1673,-817.2 1673,-106.8 1673,-80.0478 1652.8441,-57.299 1633.2923,-41.5251"/>
<polygon fill="#000000" stroke="#000000" points="1635.3686,-38.7067 1625.2996,-35.4102 1631.1151,-44.2663 1635.3686,-38.7067"/>
<text text-anchor="middle" x="1680" y="-457.8" font-family="Times,serif" font-size="14.00" fill="#000000">81</text>
</g>
<!-- Калуга -->
<g id="node25" class="node">
<title>Калуга</title>
<ellipse fill="none" stroke="#000000" cx="1530" cy="-1616.4" rx="81.0987" ry="18"/>
<text text-anchor="middle" x="1530" y="-1612.2" font-family="Times,serif" font-size="14.00" fill="#000000">Калуга</text>
</g>
<!-- Калуга&#45;&gt;Иваново -->
<g id="edge82" class="edge">
<title>Калуга&#45;&gt;Иваново</title>
<path fill="none" stroke="#000000" d="M1480.6988,-1601.9912C1470.6435,-1596.7833 1461.2424,-1589.778 1455,-1580.4 1380.5773,-1468.5945 1498.8659,-1088.3092 1424,-976.8 1403.7414,-946.6258 1383.1496,-956.8997 1350,-942 1258.6912,-900.9596 1236.8464,-888.0492 1143,-853.2 1118.0952,-843.9518 1107.5972,-850.6705 1086,-835.2 1054.2608,-812.4646 1066.5979,-785.8861 1034,-764.4 1022.0842,-756.546 994.5397,-749.1678 965.9225,-743.1606"/>
<polygon fill="#000000" stroke="#000000" points="966.2768,-739.6609 955.7793,-741.0944 964.8795,-746.5201 966.2768,-739.6609"/>
<text text-anchor="middle" x="1459.5" y="-1168.2" font-family="Times,serif" font-size="14.00" fill="#000000">182</text>
</g>
<!-- Калуга&#45;&gt;Чебоксары -->
<g id="edge83" class="edge">
<title>Калуга&#45;&gt;Чебоксары</title>
<path fill="none" stroke="#000000" d="M1538.9041,-1598.43C1545.1065,-1585.9123 1553.4925,-1568.9879 1560.5117,-1554.8218"/>
<polygon fill="#000000" stroke="#000000" points="1563.8054,-1556.0576 1565.1092,-1545.5433 1557.5332,-1552.9497 1563.8054,-1556.0576"/>
<text text-anchor="middle" x="1563" y="-1567.8" font-family="Times,serif" font-size="14.00" fill="#000000">91</text>
</g>
<!-- Калуга&#45;&gt;Саранск -->
<g id="edge84" class="edge">
<title>Калуга&#45;&gt;Саранск</title>
<path fill="none" stroke="#000000" d="M1467.5145,-1604.9328C1442.5065,-1599.2002 1413.8046,-1591.1478 1389,-1580.4 1315.4204,-1548.5181 1238.4432,-1493.8441 1197.2716,-1462.5822"/>
<polygon fill="#000000" stroke="#000000" points="1199.3531,-1459.7679 1189.2848,-1456.4695 1195.0987,-1465.3267 1199.3531,-1459.7679"/>
<text text-anchor="middle" x="1328.5" y="-1523.4" font-family="Times,serif" font-size="14.00" fill="#000000">190</text>
</g>
<!-- Калуга&#45;&gt;Резань -->
<g id="edge86" class="edge">
<title>Калуга&#45;&gt;Резань</title>
<path fill="none" stroke="#000000" d="M1593.7146,-1605.1065C1627.892,-1595.4544 1667.1654,-1577.7668 1688,-1545.6 1696.6982,-1532.1708 1690.1194,-1525.459 1688,-1509.6 1655.4913,-1266.3501 1620.6943,-1209.5894 1543,-976.8 1535.0047,-952.8444 1530.4391,-947.8029 1522,-924 1502.5812,-869.2286 1513.4324,-848.7062 1483,-799.2 1394.0528,-654.5045 1355.4261,-618.8684 1209,-532.8 1178.5422,-514.8971 1091.3966,-492.1626 1029.0258,-477.3563"/>
<polygon fill="#000000" stroke="#000000" points="1029.7771,-473.9376 1019.2409,-475.05 1028.1712,-480.7509 1029.7771,-473.9376"/>
<text text-anchor="middle" x="1578.5" y="-1035" font-family="Times,serif" font-size="14.00" fill="#000000">187</text>
</g>
<!-- Калуга&#45;&gt;Вологда -->
<g id="edge81" class="edge">
<title>Калуга&#45;&gt;Вологда</title>
<path fill="none" stroke="#000000" d="M1469.706,-1604.3005C1454.4176,-1598.9657 1438.958,-1591.3232 1427,-1580.4 1407.9679,-1563.0149 1403,-1553.3772 1403,-1527.6 1403,-1527.6 1403,-1527.6 1403,-1394.4 1403,-1158.4812 1069.7983,-1048.8572 916.9764,-1010.9853"/>
<polygon fill="#000000" stroke="#000000" points="917.7213,-1007.5644 907.1766,-1008.5939 916.0618,-1014.3649 917.7213,-1007.5644"/>
<text text-anchor="middle" x="1399.5" y="-1301.4" font-family="Times,serif" font-size="14.00" fill="#000000">193</text>
</g>
<!-- Калуга&#45;&gt;Волгоград -->
<g id="edge85" class="edge">
<title>Калуга&#45;&gt;Волгоград</title>
<path fill="none" stroke="#000000" d="M1588.6949,-1603.8166C1597.8248,-1601.9455 1607.1588,-1600.0825 1616,-1598.4 1662.5127,-1589.5487 1683.5082,-1609.3162 1721,-1580.4 1741.4115,-1564.6573 1745,-1553.3772 1745,-1527.6 1745,-1527.6 1745,-1527.6 1745,-994.8 1745,-965.8081 1721.0793,-943.469 1697.3718,-928.4484"/>
<polygon fill="#000000" stroke="#000000" points="1699.0686,-925.3849 1688.6918,-923.2468 1695.4704,-931.3894 1699.0686,-925.3849"/>
<text text-anchor="middle" x="1755.5" y="-1257" font-family="Times,serif" font-size="14.00" fill="#000000">116</text>
</g>
</g>
</svg>
